<svg t="1680057278878" class="icon" viewBox="0 0 1024 1024" version="1.1" xmlns="http://www.w3.org/2000/svg" p-id="5690" width="64" height="64"><path d="M512 512m-512 0a512 512 0 1 0 1024 0 512 512 0 1 0-1024 0Z" fill="#F48C2B" p-id="5691"></path><path d="M734.532267 819.2c43.502933-71.441067 67.601067-154.368 67.601066-236.288 0-36.096-3.669333-71.424-12.5952-105.608533-6.570667-23.552-25.634133-42.120533-50.466133-42.120534-15.0016 0-28.637867 6.673067-37.8368 17.288534v-4.488534c0-28.279467-22.596267-51.2-50.466133-51.2-27.904 0-50.466133 22.920533-50.466134 51.2v-25.6c0-28.279467-22.596267-51.2-50.432-51.2-27.904 0-50.466133 22.920533-50.466133 51.2v-166.4c0-28.279467-22.596267-51.2-50.466133-51.2-27.886933 0-50.449067 22.920533-50.449067 51.2v291.959467c0 14.199467-11.349333 25.6-25.2416 25.6-2.4064 0-4.6592-0.375467-6.929067-1.024l-71.2704-29.44a50.005333 50.005333 0 0 0-22.715733-5.512533c-27.886933 0-50.449067 22.920533-50.449067 51.2 0 21.248 12.868267 39.543467 31.010134 47.36 81.8688 42.888533 147.473067 95.488 193.365333 183.04h288.273067z" fill="#FFFFFF" p-id="5692"></path></svg>
