<svg t="1680057468126" class="icon" viewBox="0 0 1024 1024" version="1.1" xmlns="http://www.w3.org/2000/svg" p-id="10781" width="64" height="64"><path d="M960.3 512.2c0 19.6-1.2 38.9-3.7 57.9l-1.2 8.7c-0.1 1.1-0.3 2.3-0.5 3.4-0.4 3.1-1 6.2-1.5 9.3-0.7 3.7-1.3 7.4-2.1 11-1.1 5-2.2 10-3.4 15-3.1 13-6.9 25.8-11.1 38.3l-3.3 9.3c-8.9 24.4-19.8 47.8-32.6 70-1.8 3.1-3.6 6.2-5.5 9.2-0.9 1.4-1.8 2.9-2.7 4.3 0 0.2-0.1 0.3-0.2 0.4-1.9 3-3.8 6-5.8 9-10.9 16.6-22.9 32.4-35.8 47.3-3.5 4-7.1 8-10.7 11.9l-0.1 0.1c-2.4 2.6-4.8 5.2-7.3 7.7l-3.8 3.8c-5 5-10.2 10-15.5 14.8-1.3 1.2-2.7 2.4-4 3.6-2.7 2.3-5.4 4.7-8.1 7-13.7 11.6-28.1 22.4-43.2 32.3l-9 5.7c0 0.1-0.1 0.1-0.1 0.1-4.6 2.9-9.1 5.6-13.8 8.3-9.4 5.4-19 10.5-28.8 15.2-1.6 0.8-3.3 1.5-4.9 2.3-1.9 0.9-3.7 1.8-5.6 2.6-2.8 1.2-5.5 2.4-8.3 3.6-8.7 3.7-17.5 7.1-26.5 10.3-1.4 0.4-2.7 0.9-4.1 1.4-16 5.5-32.3 10.1-49 13.7-1.9 0.3-3.7 0.7-5.5 1.1-1.6 0.3-3.1 0.6-4.7 0.9l-8.1 1.5c-1.3 0.3-2.6 0.5-3.9 0.7-1.7 0.3-3.5 0.5-5.3 0.8-1.5 0.3-3 0.5-4.5 0.7-5.9 0.9-11.9 1.6-17.9 2.2-2.9 0.3-5.9 0.6-8.8 0.8-2.8 0.2-5.7 0.4-8.5 0.6-0.7 0-1.3 0.1-2 0.1-3 0.2-6 0.4-9 0.5-0.6 0.1-1.2 0.1-1.7 0.1-1.5 0-3.1 0.1-4.6 0.1-3.9 0.2-7.7 0.2-11.6 0.2-19.4 0-38.5-1.2-57.3-3.6-1.9-0.2-3.9-0.5-5.8-0.8-13.1-1.8-26-4.2-38.7-7.2-18.1-4.2-35.9-9.5-53.1-15.9C186 869.4 64 705 64 512c0-144.8 68.7-273.5 175.2-355.4 10.3-7.9 20.9-15.4 31.9-22.4 29-18.5 60.2-33.8 93.2-45.3C410.6 72.8 460.3 64 512 64h0.2c51.7 0 101.3 8.8 147.5 24.9 33 11.5 64.3 26.8 93.2 45.3 11 7 21.6 14.5 31.9 22.3 101 77.6 167.9 197.3 174.6 332.9 0.1 3.2 0.3 6.3 0.4 9.5 0 1.2 0.1 2.4 0.1 3.6 0.1 1.3 0.1 2.5 0.1 3.8 0 1.9 0 3.8 0.3 5.9z" fill="#4DBCFB" p-id="10782"></path><path d="M960 506.4v5.6c0 19.6-1.3 39-3.7 57.9l-1.2 8.7c-0.2 1.1-0.3 2.3-0.5 3.4l-1.5 9.3c-0.7 3.7-1.4 7.3-2.1 11-1 5-2.2 10.1-3.4 15-3.1 13-6.8 25.8-11.1 38.3-1 3.1-2.1 6.2-3.3 9.3-8.9 24.4-19.8 47.8-32.6 70-1.8 3.1-3.6 6.2-5.5 9.2-0.9 1.5-1.8 2.9-2.7 4.3-0.1 0.1-0.1 0.2-0.2 0.4-1.9 3-3.8 6-5.8 9-10.9 16.6-22.9 32.3-35.8 47.3-3.5 4-7.1 8-10.7 11.9 0 0 0 0.1-0.1 0.1-2.4 2.6-4.8 5.2-7.3 7.7-1.2 1.3-2.5 2.5-3.8 3.8-5.1 5.1-10.2 10-15.5 14.8-1.3 1.2-2.7 2.4-4 3.6-2.7 2.4-5.4 4.7-8.1 7-13.7 11.6-28.2 22.4-43.2 32.3-3 2-5.9 3.9-9 5.7l-0.1 0.1c-4.5 2.8-9.1 5.6-13.8 8.3-9.4 5.4-19 10.5-28.8 15.2-1.6 0.8-3.3 1.6-4.9 2.3-1.9 0.9-3.7 1.7-5.6 2.6-2.8 1.2-5.5 2.5-8.3 3.6-8.7 3.7-17.5 7.2-26.5 10.3-1.4 0.5-2.7 1-4.1 1.4-16 5.4-32.3 10-49 13.7-1.8 0.4-3.6 0.8-5.5 1.1-1.6 0.3-3.1 0.6-4.7 0.9l-8.1 1.5c-1.3 0.2-2.6 0.5-3.9 0.7-1.8 0.3-3.6 0.6-5.3 0.8-1.5 0.2-3 0.5-4.5 0.7-5.9 0.9-11.9 1.6-17.9 2.2-2.9 0.3-5.8 0.6-8.8 0.8-2.8 0.2-5.7 0.4-8.5 0.6-0.7 0-1.3 0.1-2 0.1-3 0.2-6 0.3-9 0.5-0.6 0-1.1 0-1.7 0.1-1.5 0.1-3.1 0.1-4.6 0.1-3.8 0.1-7.7 0.2-11.6 0.2-19.4 0-38.5-1.2-57.3-3.6-2.1-0.3-3.9-0.5-5.5-0.6-13.1-1.8-26-4.2-38.7-7.2L229.7 767.6l-19.6-110.7-1.8-1.8 1.8-1.1 59.2-34.9L512 475.8l237.6-140.3 5.1-3 30-17.7 29.7 29.7 144.9 144.9c0.2 3.2 0.4 6.4 0.5 9.6 0 1.2 0.1 2.4 0.1 3.6 0 1.2 0.1 2.5 0.1 3.8z" fill="#3892CC" p-id="10783"></path><path d="M754.4 783.3H270.1c-33 0-60-27-60-60V295.5c0-33 27-60 60-60h484.3c33 0 60 27 60 60v427.8c0 33-27 60-60 60z" fill="#3F2867" p-id="10784"></path><path d="M568.8 736.1H329.2c-33.1 0-60-26.9-60-60V148.9c0-33.1 26.9-60 60-60h365.5c33.1 0 60 26.9 60 60V520L568.8 736.1z" fill="#B9FCF3" p-id="10785"></path><path d="M568.6 736.1H512V88.9h182.7c33.1 0 60 26.9 60 60V520L568.6 736.1z" fill="#96F5E6" p-id="10786"></path><path d="M557.8 176.9c0-9.8 8-17.8 17.8-17.8H668c9.8 0 17.8 8 17.8 17.8s-8 17.8-17.8 17.8h-92.4c-9.8 0-17.8-8-17.8-17.8zM435.6 259.2H668c4.9 0 9.4 2 12.6 5.2 3.2 3.3 5.2 7.7 5.2 12.6 0 9.8-8 17.8-17.8 17.8H435.6c-4.9 0-9.4-2-12.6-5.2s-5.2-7.7-5.2-12.6c0-9.8 8-17.8 17.8-17.8z" fill="#3F2867" p-id="10787"></path><path d="M423 289.6c-3.2-3.2-5.2-7.7-5.2-12.6 0-9.8 8-17.8 17.8-17.8h76v35.6h-76c-4.9 0-9.4-2-12.6-5.2z" fill="#8363D4" p-id="10788"></path><path d="M814.4 395.5v327.8c0 33-27 60-60 60H270.1c-33 0-60-27-60-60V295.5c0-33 27-60 60-60h136.6l105.3 100h242.4c33 0 60 27 60 60z" fill="#FEFFFA" p-id="10789"></path><path d="M814.4 395.5v327.8c0 33-27 60-60 60H512V335.5h242.4c33 0 60 27 60 60z" fill="#E8E4EF" p-id="10790"></path><path d="M628.6 564.7L528 701.2c-3.9 5.3-9.8 8-15.8 8.1-6.1 0.1-12.3-2.6-16.3-8.1L395.3 564.7c-9.7-13.2-0.3-31.9 16.1-31.9h50.7v-90.3c0-11 9-20 20-20h59.8c11 0 20 9 20 20v90.3h50.7c16.4 0 25.9 18.7 16 31.9z" fill="#E95C94" p-id="10791"></path><path d="M628.7 564.7L528.1 701.2c-3.9 5.3-9.8 8-15.8 8.1V422.5h29.6c11 0 20 9 20 20v90.3h50.7c16.4 0 25.9 18.7 16.1 31.9z" fill="#E02B6C" p-id="10792"></path></svg>
