<svg width="35" height="35" viewBox="-8 -5.5 35 35" xmlns="http://www.w3.org/2000/svg"><path clip-rule="evenodd" d="M16.1757 14.0888L13.9333 7.08338L14.5478 6.93021L16.7901 13.9356L16.1757 14.0888Z"/><path clip-rule="evenodd" d="M6.33333 15.1579L11.4 6.31579L11.9499 6.62914L6.88322 15.4712L6.33333 15.1579Z"/><path d="M19 13.8947C19 15.29 17.8658 16.4211 16.4667 16.4211C15.0675 16.4211 13.9333 15.29 13.9333 13.8947C13.9333 12.4995 15.0675 11.3684 16.4667 11.3684C17.8658 11.3684 19 12.4995 19 13.8947Z"/><path d="M10.1333 18.9474C10.1333 21.7379 7.86491 24 5.06667 24C2.26842 24 0 21.7379 0 18.9474C0 16.1569 2.26842 13.8947 5.06667 13.8947C7.86491 13.8947 10.1333 16.1569 10.1333 18.9474Z"/><path d="M16.9731 3.78947C16.9731 5.88234 15.2718 7.57895 13.1731 7.57895C11.0744 7.57895 9.37312 5.88234 9.37312 3.78947C9.37312 1.69661 11.0744 0 13.1731 0C15.2718 0 16.9731 1.69661 16.9731 3.78947Z"/><defs><linearGradient id="paint0_linear_icon" x1="1.9" y1="24" x2="26.4917" y2="-24.0554" gradientUnits="userSpaceOnUse"><stop stop-color="#239092"/><stop offset="0.624978" stop-color="#97C8C9"/></linearGradient><linearGradient id="paint1_linear_icon" x1="1.9" y1="24" x2="26.4917" y2="-24.0554" gradientUnits="userSpaceOnUse"><stop stop-color="#239092"/><stop offset="0.624978" stop-color="#97C8C9"/></linearGradient><linearGradient id="paint2_linear_icon" x1="1.9" y1="24" x2="26.4917" y2="-24.0554" gradientUnits="userSpaceOnUse"><stop stop-color="#239092"/><stop offset="0.624978" stop-color="#97C8C9"/></linearGradient><linearGradient id="paint3_linear_icon" x1="1.9" y1="24" x2="26.4917" y2="-24.0554" gradientUnits="userSpaceOnUse"><stop stop-color="#239092"/><stop offset="0.624978" stop-color="#97C8C9"/></linearGradient><linearGradient id="paint4_linear_icon" x1="1.9" y1="24" x2="26.4917" y2="-24.0554" gradientUnits="userSpaceOnUse"><stop stop-color="#239092"/><stop offset="0.624978" stop-color="#97C8C9"/></linearGradient></defs></svg>