<?xml version="1.0" standalone="no"?><!DOCTYPE svg PUBLIC "-//W3C//DTD SVG 1.1//EN" "http://www.w3.org/Graphics/SVG/1.1/DTD/svg11.dtd"><svg t="1687442383773" class="icon" viewBox="0 0 1024 1024" version="1.1" xmlns="http://www.w3.org/2000/svg" p-id="20520" xmlns:xlink="http://www.w3.org/1999/xlink" width="64" height="64"><path d="M80.457143 757.028571a14.628571 14.628571 0 0 1 14.116571 10.752l0.512 3.876572v138.971428a18.285714 18.285714 0 0 0 14.116572 17.773715l4.169143 0.512h138.971428a14.628571 14.628571 0 0 1 14.116572 10.752l0.512 3.876571v65.828572a14.628571 14.628571 0 0 1-10.752 14.116571L252.342857 1024h-168.228571a84.114286 84.114286 0 0 1-83.602286-74.971429L0 939.885714v-168.228571a14.628571 14.628571 0 0 1 10.752-14.116572L14.628571 757.028571h65.828572z m928.914286 0c8.045714 0 14.628571 6.582857 14.628571 14.628572v168.228571a84.114286 84.114286 0 0 1-74.971429 83.602286L939.885714 1024h-168.228571a14.628571 14.628571 0 0 1-14.628572-14.628571v-65.828572c0-8.045714 6.582857-14.628571 14.628572-14.628571h138.971428a18.285714 18.285714 0 0 0 18.285715-18.285715v-138.971428c0-8.045714 6.582857-14.628571 14.628571-14.628572h65.828572zM658.285714 585.142857a219.428571 219.428571 0 0 1 219.428572 219.428572v36.571428a36.571429 36.571429 0 0 1-29.988572 35.986286L841.142857 877.714286h-658.285714a36.571429 36.571429 0 0 1-36.571429-36.571429V804.571429a219.428571 219.428571 0 0 1 219.428572-219.428572h292.571428z m0 95.085714H365.714286a124.342857 124.342857 0 0 0-122.441143 102.4H782.628571c-10.386286-58.221714-63.122286-102.4-124.342857-102.4zM512 87.771429a219.428571 219.428571 0 0 1 16.969143 438.198857L512 526.628571a219.428571 219.428571 0 0 1 0-438.857142z m0 95.085714a124.342857 124.342857 0 1 0 0 248.685714 124.342857 124.342857 0 0 0 0-248.685714zM252.342857 0a14.628571 14.628571 0 0 1 14.116572 10.752L266.971429 14.628571v65.828572a14.628571 14.628571 0 0 1-10.752 14.116571L252.342857 95.085714h-138.971428a18.285714 18.285714 0 0 0-17.773715 14.116572L95.085714 113.371429v138.971428a14.628571 14.628571 0 0 1-10.752 14.116572L80.457143 266.971429H14.628571a14.628571 14.628571 0 0 1-14.116571-10.752L0 252.342857v-168.228571C0 40.740571 32.841143 5.12 74.971429 0.512L84.114286 0h168.228571z m687.542857 0C986.331429 0 1024 37.668571 1024 84.114286v168.228571a14.628571 14.628571 0 0 1-10.752 14.116572l-3.876571 0.512h-65.828572a14.628571 14.628571 0 0 1-14.628571-14.628572v-138.971428a18.285714 18.285714 0 0 0-18.285715-18.285715h-138.971428a14.628571 14.628571 0 0 1-14.628572-14.628571V14.628571c0-8.045714 6.582857-14.628571 14.628572-14.628571h168.228571z" fill="#60666E" p-id="20521"></path></svg>