<svg t="1680057256369" class="icon" viewBox="0 0 1024 1024" version="1.1" xmlns="http://www.w3.org/2000/svg" p-id="5536" width="64" height="64"><path d="M383.6 62.8h256.3c213.6 0 320.4 106.8 320.4 320.4v256.3c0 213.6-106.8 320.4-320.4 320.4H383.6C170 959.8 63.2 853 63.2 639.4V383.2C63.2 169.6 170 62.8 383.6 62.8z" fill="#2084FE" p-id="5537"></path><path d="M254.1 515.3H416v-53.2H254.1zM254.1 358h363.1v53.2H254.1z" fill="#FFFFFF" opacity=".7" p-id="5538"></path><path d="M700.5 663.3c13.9-20.8 20.8-43.9 20.8-71.7 0-71.7-57.8-129.5-127.2-129.5S466.8 520 466.8 591.6 524.7 721 594 721c25.5 0 50.8-9.3 71.7-23.1l71.7 74 34.7-34.6-71.6-74z m-108.7 9.2c-41.7 0-76.3-34.7-76.3-78.6 0-43.9 34.7-78.6 76.3-78.6 41.7 0 76.3 34.7 76.3 78.6 0 41.7-34.7 78.6-76.3 78.6z" fill="#FFFFFF" p-id="5539"></path><path d="M254.1 254h363.1v53.2H254.1z" fill="#FFFFFF" opacity=".7" p-id="5540"></path></svg>
