<?xml version="1.0" standalone="no"?><!DOCTYPE svg PUBLIC "-//W3C//DTD SVG 1.1//EN" "http://www.w3.org/Graphics/SVG/1.1/DTD/svg11.dtd"><svg t="1680156407806" class="icon" viewBox="0 0 1325 1024" version="1.1" xmlns="http://www.w3.org/2000/svg" p-id="5317" xmlns:xlink="http://www.w3.org/1999/xlink" width="82.8125" height="64"><path d="M0 0m120.470588 0l963.764706 0q120.470588 0 120.470588 120.470588l0 602.352941q0 120.470588-120.470588 120.470589l-963.764706 0q-120.470588 0-120.470588-120.470589l0-602.352941q0-120.470588 120.470588-120.470588Z" fill="#8FA5FF" p-id="5318"></path><path d="M286.117647 180.705882h632.470588a45.176471 45.176471 0 1 1 0 90.352942H286.117647a45.176471 45.176471 0 0 1 0-90.352942z m0 180.705883h632.470588a45.176471 45.176471 0 1 1 0 90.352941H286.117647a45.176471 45.176471 0 0 1 0-90.352941z m0 180.705882h632.470588a45.176471 45.176471 0 1 1 0 90.352941H286.117647a45.176471 45.176471 0 1 1 0-90.352941z" fill="#F0F3FF" p-id="5319"></path><path d="M301.176471 903.529412m60.235294 0l481.882353 0q60.235294 0 60.235294 60.235294l0 0q0 60.235294-60.235294 60.235294l-481.882353 0q-60.235294 0-60.235294-60.235294l0 0q0-60.235294 60.235294-60.235294Z" fill="#8FA5FF" p-id="5320"></path><path d="M963.764706 662.588235m-361.411765 0a361.411765 361.411765 0 1 0 722.82353 0 361.411765 361.411765 0 1 0-722.82353 0Z" fill="#2F54EB" p-id="5321"></path><path d="M963.463529 557.537882c21.925647 0 44.513882 4.457412 67.102118 13.312 19.877647 7.830588 39.393882 18.733176 57.886118 32.527059 19.877647 14.757647 33.189647 28.912941 40.839529 38.068706 8.131765 9.697882 12.288 16.745412 14.034824 20.48-1.807059 3.855059-6.023529 10.842353-14.21553 20.660706-7.770353 9.336471-21.082353 23.491765-40.899764 38.369882-18.432 13.914353-37.948235 24.937412-57.765648 32.768-22.588235 8.975059-45.176471 13.492706-67.041882 13.492706s-44.393412-4.517647-66.921412-13.372235a248.410353 248.410353 0 0 1-57.825882-32.64753 247.145412 247.145412 0 0 1-40.96-38.128941 108.303059 108.303059 0 0 1-14.155294-20.48c1.807059-3.794824 5.903059-10.842353 14.034823-20.60047 13.854118-16.865882 29.876706-30.117647 40.779295-38.249412 18.432-13.854118 37.948235-24.877176 57.825882-32.707765a182.994824 182.994824 0 0 1 67.282823-13.492706m0-30.117647c-116.495059 0-210.462118 105.893647-210.883764 134.927059-0.421647 28.069647 94.388706 134.927059 210.823529 134.927059 116.495059 0 210.401882-106.857412 210.883765-134.927059 0.542118-29.033412-94.388706-134.927059-210.82353-134.927059zM873.411765 662.708706a90.352941 90.352941 0 1 0 180.766117 0 90.352941 90.352941 0 0 0-180.766117 0z" fill="#FFFFFF" p-id="5322"></path></svg>