<?xml version="1.0" standalone="no"?><!DOCTYPE svg PUBLIC "-//W3C//DTD SVG 1.1//EN" "http://www.w3.org/Graphics/SVG/1.1/DTD/svg11.dtd"><svg t="1686290220208" class="icon" viewBox="0 0 1024 1024" version="1.1" xmlns="http://www.w3.org/2000/svg" p-id="1471" xmlns:xlink="http://www.w3.org/1999/xlink" width="64" height="64"><path d="M452.5 955c-5.3 0-10.4-2.1-14.2-5.9L143.9 654.6c-7.8-7.8-7.8-20.5 0-28.4 7.8-7.8 20.5-7.8 28.4 0l280.2 280.2 375.8-375.8c7.8-7.8 20.5-7.8 28.4 0 7.8 7.8 7.8 20.5 0 28.4l-390 390c-3.8 3.9-8.9 6-14.2 6z" p-id="1472"></path><path d="M571.9 85.3L166.6 484.9l284.5 288.7L856.4 374 851 94.7l-279.1-9.4z m136.8 211c-38 0-68.8-30.8-68.8-68.8s30.8-68.8 68.8-68.8 68.8 30.8 68.8 68.8-30.8 68.8-68.8 68.8z" p-id="1473"></path><path d="M888.9 75.8c-0.2-10.2-8.3-18.4-18.5-18.7L565 46.8c-5.3-0.2-10.3 1.8-14.1 5.5L126.1 471.1c-7.5 7.4-7.6 19.5-0.2 27L437.3 814c3.7 3.8 8.7 5.7 13.6 5.7 4.8 0 9.7-1.8 13.4-5.5l424.8-418.8c3.7-3.7 5.8-8.7 5.7-14l-5.9-305.6z m-438 724.8L139.5 484.7 564.3 65.9l305.5 10.3 5.9 305.6-424.8 418.8z" p-id="1474"></path><path d="M564.3 65.9L139.5 484.7l311.4 315.9 424.8-418.8-5.9-305.6-305.5-10.3zM451.1 773.5L166.6 484.9 571.9 85.3 851 94.7l5.4 279.2-405.3 399.6z" p-id="1475"></path></svg>